# xmcd
#
# Track frame offsets:
#	150
#	17935
#	32053
#	46130
#	62825
#	77698
#	96405
#	109420
#	126373
#	140955
#
# Disc length: 2071 seconds
#
# Revision: 3
# Processed by: cddbd v1.5.2PL0 Copyright (c) Steve Scherf et al.
# Submitted via: audiograbber 1.83.01
#
DISCID=9208150a
DTITLE=Yuri - Aire
DYEAR=1988
DGENRE=Latin
TTITLE0=Cuando Baja La Marea
TTITLE1=Que Te Pasa
TTITLE2=Entre Dos Aguas
TTITLE3=Piedad
TTITLE4=Tonto
TTITLE5=Amores Clandestinos
TTITLE6=Cartas
TTITLE7=Bubalu
TTITLE8=Comediantes
TTITLE9=Amo
EXTD=
EXTT0=
EXTT1=
EXTT2=
EXTT3=
EXTT4=
EXTT5=
EXTT6=
EXTT7=
EXTT8=
EXTT9=
PLAYORDER=
